<svg xmlns="http://www.w3.org/2000/svg" xmlns:xlink="http://www.w3.org/1999/xlink" version="1.1" id="Camada_1" x="0px" y="0px" width="100px" height="100px" viewBox="0 0 100 100" enable-background="new 0 0 100 100" xml:space="preserve">
<path d="M50,3.363c-21.315,0-38.596,17.28-38.596,38.596c0,10.035,3.846,19.158,10.124,26.018c0.242,0.265,0.487,0.526,0.736,0.784  c-0.05,0.042,27.737,27.876,27.737,27.876s27.785-27.834,27.735-27.876c6.711-6.944,10.858-16.383,10.858-26.802  C88.596,20.643,71.316,3.363,50,3.363z M50,16.49c2.669,0,4.827,2.161,4.827,4.829c0,2.665-2.158,4.827-4.827,4.827  s-4.827-2.162-4.827-4.827C45.173,18.651,47.331,16.49,50,16.49z M71.33,36.785c-0.3,0.952-1.181,1.561-2.128,1.561  c-0.225,0-0.45-0.033-0.673-0.103l-11.411-3.6v37.882c0,1.542-1.249,2.789-2.79,2.789c-1.539,0-2.791-1.247-2.791-2.789v-20.4  c-0.006,0.004,0-0.062,0-0.105c0-0.848-0.688-1.536-1.537-1.536s-1.537,0.688-1.537,1.536c0,0.044,0.006,0.109,0,0.105v20.4  c0,1.542-1.25,2.789-2.791,2.789c-1.54,0-2.79-1.247-2.79-2.789V34.644l-11.412,3.6c-1.178,0.372-2.43-0.283-2.8-1.458  c-0.371-1.175,0.282-2.429,1.457-2.8l14.687-4.631c0,0,1.924-0.661,5.225-0.661c3.281,0,5.146,0.661,5.146,0.661l14.687,4.631  C71.046,34.356,71.701,35.61,71.33,36.785z"/>
</svg>